<svg xmlns="http://www.w3.org/2000/svg" width="500" height="500" style="width:100%;height:100%;transform:translate3d(0,0,0)" viewBox="0 0 500 500"><defs><clipPath id="d"><path d="M0 0h500v500H0z"/></clipPath><clipPath id="i"><path d="M0 0h500v500H0z"/></clipPath><clipPath id="g"><path d="M0 0h500v500H0z"/></clipPath><clipPath id="e"><path d="M0 0h500v500H0z"/></clipPath><mask id="j" mask-type="alpha"><use xmlns:ns1="http://www.w3.org/1999/xlink" ns1:href="#a"/></mask><mask id="h" mask-type="alpha"><use xmlns:ns2="http://www.w3.org/1999/xlink" ns2:href="#b"/></mask><mask id="f" mask-type="alpha"><use xmlns:ns3="http://www.w3.org/1999/xlink" ns3:href="#c"/></mask><g id="a" class="primary design" style="display:none"><path fill-opacity="0" stroke-linecap="round" stroke-linejoin="round" class="primary"/><path class="primary"/></g><g id="b" class="primary design" style="display:none"><path fill-opacity="0" stroke-linecap="round" stroke-linejoin="round" class="primary"/><path class="primary"/></g><g id="c" class="primary design" style="display:none"><path fill-opacity="0" stroke-linecap="round" stroke-linejoin="round" class="primary"/><path class="primary"/></g></defs><g clip-path="url(#d)"><g clip-path="url(#e)" style="display:none"><g class="primary design" style="display:none"><path fill="none" class="primary"/></g><g class="primary design" mask="url(#f)" style="display:none"><path fill="none" class="primary"/></g><g class="primary design" style="display:none"><path class="primary"/><path class="primary"/></g><g class="primary design" style="display:none"><path class="primary"/><path class="primary"/></g></g><g clip-path="url(#g)" style="display:block"><g class="primary design" style="display:none"><path fill="none" class="primary"/></g><g fill="none" class="primary design" mask="url(#h)" style="display:none"><path class="primary"/><path class="primary"/><path class="primary"/></g><g class="primary design" style="display:none"><path class="primary"/><path class="primary"/></g><g class="primary design" style="display:block"><path d="M166.683 204.336c3.958 0 7.915 1.458 11.04 4.582l72.28 72.072 72.28-72.28c6.04-6.04 16.04-6.04 22.08 0 6.04 6.04 6.04 16.039 0 22.08l-83.32 83.32c-6.04 6.04-16.04 6.04-22.08 0l-83.32-83.32c-6.04-6.041-6.04-16.04 0-22.08a16.135 16.135 0 0 1 11.04-4.374z" class="primary"/><path d="M250.211 41.653c53.742 0 104.567 20.205 143.519 57.491 40.202 38.327 63.115 90.194 64.573 145.81 1.25 55.616-19.164 108.316-57.49 148.726-38.328 40.202-90.195 63.115-145.81 64.573-55.409 1.25-108.525-18.955-148.727-57.49-40.202-38.328-63.115-90.194-64.573-145.81-1.25-55.617 18.955-108.525 57.49-148.727 38.328-40.202 90.195-63.115 145.81-64.573h5.208zm-.416 385.355h4.374c47.492-1.25 91.444-20.621 123.938-54.99 32.704-34.162 49.992-79.155 48.743-126.439-1.042-47.284-20.622-91.235-54.783-123.939-34.161-32.703-79.363-49.992-126.438-48.742-47.284 1.042-91.236 20.622-123.939 54.783-32.703 34.161-49.992 79.154-48.742 126.438 1.041 47.284 20.622 91.236 54.783 123.939 33.328 31.661 76.446 48.95 122.064 48.95z" class="primary"/></g></g><g clip-path="url(#i)" style="display:none"><g class="primary design" style="display:none"><path fill="none" class="primary"/></g><g fill="none" class="primary design" mask="url(#j)" style="display:none"><path class="primary"/><path class="primary"/><path class="primary"/></g><g class="primary design" style="display:none"><path class="primary"/><path class="primary"/></g></g></g></svg>