<svg width="1440" height="2052" viewBox="0 0 1440 2052" fill="none" xmlns="http://www.w3.org/2000/svg">
<path d="M421.095 100.609C421.518 101.557 421.941 102.505 422.364 103.452L420.081 104.471C421.327 107.26 422.574 110.046 423.827 112.821C425.147 115.745 426.496 118.671 427.861 121.599L430.127 120.543C432.018 124.598 433.943 128.662 435.873 132.737C436.697 134.477 437.522 136.219 438.345 137.962L436.085 139.03C438.825 144.831 441.542 150.639 444.156 156.465L446.437 155.442C449.078 161.328 451.616 167.237 453.964 173.171L451.639 174.091C454.003 180.066 456.168 186.052 458.046 192.056L460.432 191.31C462.366 197.494 464.003 203.706 465.248 209.95L462.796 210.438C464.037 216.666 464.877 222.909 465.224 229.173L467.72 229.035C468.072 235.41 467.924 241.82 467.176 248.266L464.692 247.978C464.334 251.063 463.835 254.155 463.185 257.256C462.521 260.418 461.739 263.535 460.846 266.607L463.246 267.305C461.407 273.632 459.104 279.768 456.397 285.719L454.121 284.684C451.458 290.537 448.394 296.214 444.983 301.717L447.108 303.034C443.673 308.578 439.896 313.943 435.834 319.132L433.866 317.591C429.899 322.659 425.654 327.562 421.182 332.305L423.001 334.02C418.523 338.77 413.825 343.356 408.962 347.781L407.279 345.932C402.479 350.299 397.513 354.512 392.432 358.573L393.993 360.526C388.857 364.631 383.61 368.579 378.304 372.375L376.849 370.341C374.191 372.243 371.517 374.107 368.834 375.933C366.367 377.612 363.867 379.213 361.338 380.74L362.63 382.881C357.432 386.019 352.112 388.847 346.685 391.401L345.621 389.139C340.229 391.677 334.728 393.944 329.131 395.974L329.984 398.324C324.325 400.378 318.575 402.191 312.752 403.801L312.086 401.392C306.351 402.977 300.538 404.366 294.662 405.593L295.173 408.04C289.293 409.268 283.356 410.333 277.38 411.272L276.992 408.803C271.089 409.731 265.142 410.535 259.166 411.251L259.463 413.733C253.487 414.449 247.487 415.076 241.48 415.648L241.242 413.159C238.249 413.444 235.253 413.716 232.256 413.979C229.174 414.248 226.082 414.528 222.986 414.808L223.212 417.298C222.94 417.323 222.669 417.347 222.398 417.372C216.513 417.905 210.602 418.44 204.684 418.923L204.481 416.431C198.311 416.934 192.144 417.378 185.997 417.702L186.129 420.199C179.911 420.527 173.707 420.732 167.539 420.75L167.532 418.25C161.342 418.269 155.201 418.098 149.128 417.672L148.953 420.166C142.729 419.73 136.566 419.029 130.49 417.994L130.909 415.53C124.873 414.502 118.933 413.141 113.113 411.379L112.389 413.772C106.486 411.985 100.694 409.791 95.0372 407.12L96.1047 404.859C93.3807 403.573 90.6894 402.174 88.0335 400.654C85.3082 399.094 82.6411 397.454 80.0318 395.737L78.6575 397.825C73.3238 394.315 68.23 390.492 63.3738 386.393L64.9864 384.482C60.1971 380.439 55.6396 376.121 51.3118 371.563L49.4988 373.284C45.1256 368.679 40.9866 363.834 37.0793 358.788L39.0561 357.257C35.2186 352.301 31.6053 347.144 28.2145 341.822L26.1061 343.166C22.693 337.809 19.5046 332.29 16.5387 326.644L18.7519 325.481C15.8249 319.91 13.1157 314.211 10.6224 308.419L8.32614 309.408C5.80585 303.554 3.50489 297.609 1.42093 291.607L3.7826 290.787C2.74645 287.803 1.76435 284.805 0.836038 281.797C-0.0361238 278.971 -0.81928 276.136 -1.51812 273.292L-3.94587 273.889C-5.383 268.041 -6.4686 262.163 -7.24247 256.261L-4.7637 255.936C-5.53087 250.084 -5.98777 244.205 -6.1733 238.304L-8.67208 238.382C-8.85964 232.416 -8.77322 226.435 -8.4531 220.446L-5.95667 220.58C-5.642 214.693 -5.09874 208.793 -4.36511 202.888L-6.84602 202.58C-6.11139 196.666 -5.18832 190.753 -4.11545 184.848L-1.65571 185.295C-0.596601 179.466 0.610349 173.641 1.92808 167.825L-0.510099 167.273C0.810582 161.444 2.24071 155.632 3.74265 149.842L6.16253 150.47C6.91128 147.584 7.6782 144.702 8.45869 141.827C9.22723 138.995 10.0093 136.163 10.8086 133.336L8.4029 132.656C10.0044 126.99 11.6764 121.335 13.4489 115.719L15.833 116.471C17.6001 110.872 19.4658 105.317 21.46 99.8329L19.1105 98.9785C21.1309 93.4225 23.2841 87.9343 25.6008 82.5427L27.8977 83.5297C30.2119 78.1438 32.6879 72.8618 35.3566 67.7114L33.1369 66.5613C35.8561 61.3134 38.7759 56.1952 41.9285 51.2368L44.0382 52.5782C47.1573 47.6725 50.5039 42.931 54.1094 38.3823L52.1503 36.8294C55.7926 32.2343 59.6988 27.8282 63.9006 23.6413L65.6652 25.4122C67.7051 23.3795 69.8155 21.3999 72 19.4766C74.2266 17.5165 76.4983 15.6271 78.8125 13.8062L77.2666 11.8415C82.0066 8.11185 86.9206 4.66635 91.9856 1.48578L93.3151 3.60295C98.331 0.453108 103.5 -2.43508 108.8 -5.08039L107.684 -7.31726C113.046 -9.99365 118.537 -12.4228 124.133 -14.6242L125.048 -12.2977C130.554 -14.4636 136.167 -16.4078 141.864 -18.1488L141.134 -20.5396C146.858 -22.2886 152.662 -23.8334 158.524 -25.1927L159.088 -22.7573C164.871 -24.0982 170.714 -25.2577 176.595 -26.2539L176.177 -28.7188C182.091 -29.7206 188.04 -30.5579 194.002 -31.2492L194.29 -28.7659C197.252 -29.1094 200.218 -29.4166 203.185 -29.6899C206.226 -29.97 209.275 -30.2245 212.331 -30.4491L212.147 -32.9424C218.268 -33.3924 224.416 -33.7237 230.568 -33.9022L230.641 -31.4033C236.753 -31.5806 242.863 -31.6061 248.948 -31.4463L249.013 -33.9454C255.18 -33.7835 261.326 -33.4328 267.425 -32.8589L267.191 -30.3699C273.278 -29.7971 279.311 -29.0004 285.268 -27.9456L285.704 -30.4073C291.781 -29.3311 297.786 -27.9885 303.691 -26.3432L303.02 -23.9349C308.866 -22.3058 314.608 -20.3775 320.221 -18.1147L321.156 -20.4333C326.838 -18.1424 332.395 -15.512 337.8 -12.506L336.585 -10.3211C339.213 -8.85979 341.804 -7.30844 344.354 -5.66277C346.883 -4.03146 349.326 -2.31848 351.689 -0.529439L353.198 -2.52261C358.1 1.18931 362.663 5.21979 366.936 9.51888L365.163 11.2812C369.381 15.5258 373.318 20.0434 377.022 24.7873L378.992 23.2489C382.724 28.0286 386.215 33.0259 389.515 38.1911L387.409 39.5372C390.633 44.5841 393.679 49.8007 396.591 55.1421L398.786 53.9454C401.688 59.2694 404.455 64.7069 407.13 70.2115L404.882 71.3045C407.527 76.7466 410.086 82.2602 412.605 87.8041L414.881 86.77C416.975 91.3775 419.037 95.9993 421.095 100.609Z" stroke="url(#paint0_linear_307_51)" stroke-opacity="0.5" stroke-width="5" stroke-dasharray="20 20"/>
<path d="M443.411 765.746C447.784 760.73 452.482 755.971 457.495 751.508L459.157 753.375C461.604 751.196 464.128 749.089 466.726 747.058C469.294 745.051 471.913 743.153 474.58 741.362L473.186 739.287C478.711 735.576 484.434 732.313 490.323 729.47L491.41 731.721C497.257 728.897 503.274 726.492 509.427 724.477L508.649 722.101C514.898 720.054 521.282 718.404 527.764 717.12L528.25 719.572C534.591 718.316 541.034 717.414 547.546 716.838L547.326 714.348C553.855 713.771 560.447 713.517 567.069 713.559L567.053 716.059C573.54 716.099 580.06 716.426 586.583 717.012L586.806 714.522C593.353 715.11 599.897 715.955 606.408 717.031L606.001 719.498C609.222 720.03 612.435 720.619 615.637 721.262C619.004 721.937 622.382 722.653 625.762 723.412L626.31 720.973C633.046 722.486 639.796 724.173 646.489 726.069L645.808 728.475C652.446 730.355 659.021 732.44 665.465 734.763L666.313 732.412C672.885 734.781 679.328 737.397 685.572 740.296L684.519 742.564C690.799 745.48 696.864 748.68 702.641 752.2L703.942 750.065C709.924 753.709 715.613 757.697 720.928 762.067L719.34 763.998C724.619 768.339 729.513 773.057 733.945 778.19L735.837 776.557C740.335 781.766 744.373 787.402 747.872 793.504L745.703 794.748C747.37 797.655 748.911 800.67 750.318 803.799C751.699 806.872 752.902 809.967 753.936 813.083L756.309 812.295C758.488 818.859 759.94 825.51 760.756 832.217L758.274 832.519C759.077 839.118 759.251 845.785 758.883 852.488L761.38 852.625C761.009 859.365 760.103 866.127 758.749 872.881L756.298 872.39C754.994 878.896 753.266 885.406 751.195 891.889L753.576 892.65C751.519 899.087 749.132 905.487 746.492 911.823L744.184 910.861C741.595 917.074 738.759 923.231 735.751 929.305L737.991 930.414C734.956 936.541 731.751 942.577 728.452 948.495L726.268 947.277C724.609 950.253 722.926 953.2 721.228 956.115C719.73 958.686 718.183 961.22 716.588 963.714L718.694 965.061C715.443 970.144 711.992 975.066 708.347 979.804L706.365 978.279C702.732 983.002 698.906 987.538 694.894 991.864L696.727 993.564C692.627 997.984 688.333 1002.19 683.853 1006.16L682.196 1004.29C677.752 1008.22 673.124 1011.92 668.319 1015.35L669.772 1017.38C664.884 1020.88 659.814 1024.1 654.567 1027.03L653.348 1024.85C648.203 1027.72 642.889 1030.31 637.411 1032.59L638.372 1034.9C632.866 1037.19 627.196 1039.18 621.37 1040.83L620.687 1038.42C617.861 1039.23 614.997 1039.95 612.096 1040.59C609.207 1041.23 606.313 1041.78 603.417 1042.25L603.815 1044.71C597.864 1045.67 591.905 1046.28 585.959 1046.55L585.846 1044.05C579.938 1044.32 574.043 1044.25 568.181 1043.85L568.01 1046.34C562.03 1045.93 556.085 1045.19 550.198 1044.12L550.644 1041.66C544.848 1040.61 539.108 1039.24 533.444 1037.56L532.735 1039.96C527.008 1038.27 521.36 1036.27 515.812 1033.97L516.768 1031.66C511.335 1029.41 505.999 1026.88 500.78 1024.07L499.595 1026.27C494.348 1023.45 489.219 1020.35 484.228 1016.99L485.625 1014.92C483.181 1013.27 480.772 1011.56 478.398 1009.79C475.899 1007.93 473.437 1006.01 471.015 1004.05L469.442 1006C464.537 1002.02 459.798 997.858 455.261 993.508L456.991 991.704C452.479 987.378 448.172 982.872 444.105 978.196L442.218 979.836C438.065 975.061 434.158 970.109 430.533 964.989L432.573 963.545C428.968 958.453 425.649 953.198 422.654 947.791L420.467 949.003C417.406 943.479 414.676 937.795 412.316 931.962L414.633 931.025C412.312 925.289 410.356 919.412 408.803 913.405L406.382 914.03C404.816 907.971 403.651 901.778 402.926 895.463L405.41 895.178C405.059 892.125 404.813 889.043 404.677 885.933C404.532 882.638 404.482 879.345 404.525 876.058L402.025 876.026C402.113 869.326 402.582 862.653 403.425 856.046L405.905 856.362C406.739 849.813 407.945 843.33 409.511 836.95L407.083 836.354C408.679 829.855 410.644 823.46 412.968 817.209L415.312 818.081C417.608 811.903 420.261 805.869 423.258 800.016L421.033 798.876C424.078 792.931 427.475 787.168 431.212 781.628L433.285 783.027C436.958 777.582 440.965 772.357 445.296 767.388L443.411 765.746Z" stroke="url(#paint1_linear_307_51)" stroke-opacity="0.5" stroke-width="5" stroke-dasharray="20 20"/>
<path d="M883.885 1615.57C889.96 1612.29 896.373 1609.9 903.169 1608.75L903.584 1611.22C906.75 1610.68 910 1610.44 913.344 1610.51C916.771 1610.59 920.127 1610.96 923.409 1611.6L923.883 1609.14C930.825 1610.48 937.435 1612.95 943.659 1616.29L942.477 1618.49C948.411 1621.67 954.005 1625.69 959.205 1630.3L960.864 1628.43C966.089 1633.07 970.903 1638.28 975.258 1643.83L973.291 1645.38C975.426 1648.1 977.45 1650.91 979.356 1653.77C981.157 1656.48 982.816 1659.26 984.326 1662.12L986.536 1660.95C989.666 1666.86 992.171 1673.05 993.987 1679.4L991.583 1680.08C993.368 1686.32 994.466 1692.72 994.817 1699.14L997.314 1699.01C997.675 1705.62 997.269 1712.27 996.03 1718.85L993.573 1718.39C992.982 1721.53 992.194 1724.65 991.204 1727.74C990.257 1730.7 989.122 1733.56 987.815 1736.34L990.076 1737.4C987.339 1743.2 983.873 1748.6 979.813 1753.5L977.888 1751.9C973.955 1756.65 969.443 1760.93 964.478 1764.67L965.981 1766.66C960.906 1770.48 955.379 1773.74 949.529 1776.36L948.505 1774.08C945.686 1775.35 942.79 1776.46 939.833 1777.42C937.201 1778.27 934.575 1778.85 931.954 1779.21L932.292 1781.69C926.599 1782.46 920.934 1782.21 915.301 1781.26L915.717 1778.8C910.403 1777.9 905.078 1776.34 899.728 1774.39L898.873 1776.74C893.592 1774.82 888.343 1772.54 883.129 1770.17L884.161 1767.9C882.222 1767.02 880.29 1766.13 878.355 1765.24C877.71 1764.94 877.065 1764.64 876.419 1764.35C873.457 1762.98 870.412 1761.67 867.348 1760.38L866.374 1762.68C865.155 1762.16 863.93 1761.65 862.702 1761.13C857.885 1759.11 853.029 1757.07 848.338 1754.87L849.399 1752.61C843.354 1749.77 837.681 1746.72 832.765 1743.13L831.291 1745.15C825.849 1741.18 821.243 1736.54 818.027 1730.86L820.203 1729.63C818.745 1727.05 817.592 1724.24 816.804 1721.14C815.982 1717.92 815.568 1714.72 815.508 1711.56L813.008 1711.6C812.877 1704.76 814.309 1698.06 816.804 1691.55L819.139 1692.45C821.437 1686.45 824.689 1680.57 828.506 1674.83L826.425 1673.45C830.186 1667.79 834.447 1662.33 838.815 1657.08L840.737 1658.68C842.933 1656.04 845.159 1653.45 847.369 1650.91C849.589 1648.36 851.855 1645.82 854.173 1643.32L852.34 1641.62C857.014 1636.58 861.912 1631.71 867.073 1627.31L868.695 1629.22C873.908 1624.77 879.353 1620.86 885.073 1617.77L883.885 1615.57Z" stroke="url(#paint2_linear_307_51)" stroke-opacity="0.5" stroke-width="5" stroke-dasharray="20 20"/>
<path d="M-22.4383 1887.92C-27.5225 1882.93 -32.3779 1877.65 -36.9807 1872.08L-35.054 1870.49C-37.3008 1867.77 -39.4868 1864.99 -41.6091 1862.13C-43.4944 1859.59 -45.3397 1857.02 -47.143 1854.41L-49.1977 1855.84C-52.8334 1850.59 -56.3006 1845.23 -59.5861 1839.75L-57.4427 1838.47C-60.7028 1833.04 -63.7821 1827.5 -66.6677 1821.88L-68.892 1823.02C-71.8104 1817.33 -74.5327 1811.55 -77.0456 1805.69L-74.7482 1804.71C-77.2478 1798.88 -79.5378 1792.98 -81.6052 1787.02L-83.9671 1787.84C-86.0645 1781.8 -87.9354 1775.69 -89.5662 1769.53L-87.1495 1768.89C-88.772 1762.77 -90.154 1756.6 -91.282 1750.4L-93.7416 1750.85C-94.8871 1744.55 -95.7739 1738.23 -96.388 1731.89L-93.8997 1731.65C-94.5089 1725.35 -94.8467 1719.05 -94.8993 1712.75L-97.3992 1712.77C-97.4525 1706.39 -97.217 1700 -96.6783 1693.64L-94.1872 1693.85C-93.6569 1687.58 -92.8291 1681.33 -91.6903 1675.11L-94.1494 1674.66C-93.0052 1668.41 -91.5508 1662.2 -89.7725 1656.03L-87.3703 1656.72C-86.5007 1653.71 -85.5525 1650.7 -84.5242 1647.71C-83.5266 1644.81 -82.4507 1641.96 -81.2998 1639.17L-83.6106 1638.22C-81.2223 1632.43 -78.5163 1626.89 -75.5218 1621.56L-73.3429 1622.79C-70.3438 1617.46 -67.0492 1612.35 -63.4884 1607.45L-65.5112 1605.98C-61.8793 1600.98 -57.9768 1596.19 -53.835 1591.6L-51.9786 1593.27C-47.9108 1588.76 -43.6054 1584.44 -39.0917 1580.29L-40.7843 1578.45C-36.2633 1574.29 -31.5401 1570.3 -26.6446 1566.47L-25.1037 1568.44C-20.3186 1564.69 -15.3633 1561.1 -10.2655 1557.63L-11.6719 1555.56C-6.59499 1552.11 -1.38234 1548.78 3.93833 1545.57L5.2295 1547.71C10.4598 1544.56 15.7986 1541.51 21.2196 1538.56L20.0244 1536.37C25.4338 1533.42 30.9209 1530.57 36.4594 1527.8L37.5774 1530.04C43.076 1527.29 48.6281 1524.62 54.2086 1522.01L53.1498 1519.75C58.7555 1517.12 64.3864 1514.57 70.0162 1512.06L71.0333 1514.34C73.8544 1513.09 76.6759 1511.84 79.4946 1510.61C82.5874 1509.26 85.6982 1507.88 88.8243 1506.49L87.8093 1504.21C91.2725 1502.67 94.7567 1501.11 98.2592 1499.55C100.973 1498.34 103.697 1497.12 106.432 1495.9L107.449 1498.18C113.62 1495.44 119.836 1492.69 126.084 1489.99L125.093 1487.7C131.329 1485 137.601 1482.36 143.894 1479.81L144.832 1482.13C151.135 1479.58 157.454 1477.14 163.776 1474.84L162.923 1472.49C169.36 1470.16 175.805 1467.97 182.243 1466L182.976 1468.39C189.5 1466.4 196.008 1464.62 202.487 1463.11L201.921 1460.68C208.628 1459.12 215.312 1457.85 221.954 1456.93L222.297 1459.4C229.028 1458.47 235.704 1457.9 242.309 1457.76L242.256 1455.26C249.107 1455.12 255.894 1455.43 262.597 1456.26L262.289 1458.74C268.893 1459.56 275.405 1460.9 281.81 1462.82L282.528 1460.43C288.932 1462.35 295.236 1464.84 301.423 1467.98L300.292 1470.21C303.22 1471.69 306.122 1473.32 308.997 1475.11C311.838 1476.88 314.548 1478.74 317.133 1480.69L318.638 1478.69C324.12 1482.82 329.058 1487.35 333.509 1492.22L331.663 1493.9C336.116 1498.78 340.074 1504.01 343.598 1509.56L345.708 1508.22C349.284 1513.85 352.417 1519.78 355.166 1525.98L352.881 1526.99C355.524 1532.95 357.811 1539.16 359.797 1545.58L362.186 1544.84C364.141 1551.17 365.804 1557.68 367.227 1564.34L364.782 1564.86C366.154 1571.29 367.301 1577.86 368.271 1584.54L370.745 1584.18C371.701 1590.76 372.484 1597.44 373.14 1604.17L370.652 1604.42C371.296 1611.03 371.817 1617.71 372.258 1624.42L374.753 1624.26C375.192 1630.95 375.552 1637.67 375.875 1644.37L373.378 1644.49C373.646 1650.07 373.888 1655.64 374.13 1661.19C374.136 1661.33 374.142 1661.47 374.148 1661.62C374.148 1661.62 374.148 1661.62 374.148 1661.62C374.192 1662.61 374.235 1663.61 374.279 1664.6L376.776 1664.49C377.072 1671.27 377.374 1677.99 377.727 1684.62L375.23 1684.75C375.41 1688.13 375.603 1691.49 375.815 1694.83C376.033 1698.24 376.242 1701.66 376.437 1705.08L378.933 1704.94C379.324 1711.77 379.662 1718.63 379.906 1725.49L377.407 1725.58C377.651 1732.43 377.8 1739.26 377.815 1746.07L380.315 1746.07C380.33 1752.96 380.207 1759.82 379.906 1766.64L377.408 1766.53C377.105 1773.38 376.62 1780.18 375.911 1786.89L378.397 1787.16C377.671 1794.03 376.712 1800.83 375.475 1807.52L373.016 1807.07C371.774 1813.79 370.25 1820.39 368.399 1826.87L370.802 1827.55C368.909 1834.17 366.676 1840.66 364.054 1846.98L361.745 1846.02C359.165 1852.25 356.204 1858.31 352.817 1864.19L354.983 1865.43C351.596 1871.31 347.787 1877 343.51 1882.49L341.538 1880.95C339.484 1883.59 337.319 1886.18 335.04 1888.71C332.694 1891.32 330.285 1893.85 327.817 1896.28L329.574 1898.06C324.501 1903.07 319.18 1907.73 313.638 1912.05L312.101 1910.08C306.578 1914.38 300.832 1918.34 294.891 1921.98L296.196 1924.11C290.162 1927.8 283.933 1931.16 277.538 1934.19L276.466 1931.93C270.168 1934.92 263.704 1937.6 257.103 1939.97L257.949 1942.32C251.317 1944.71 244.551 1946.79 237.682 1948.58L237.051 1946.16C230.302 1947.92 223.449 1949.4 216.52 1950.62L216.951 1953.08C210.007 1954.29 202.991 1955.24 195.93 1955.93L195.687 1953.44C188.725 1954.12 181.716 1954.55 174.689 1954.74L174.758 1957.24C167.693 1957.44 160.613 1957.39 153.543 1957.12L153.639 1954.62C150.131 1954.48 146.626 1954.29 143.126 1954.05C139.573 1953.8 136.028 1953.49 132.493 1953.12L132.236 1955.61C125.088 1954.87 117.979 1953.9 110.931 1952.69L111.355 1950.22C104.326 1949.01 97.3601 1947.56 90.4802 1945.86L89.8812 1948.29C82.8974 1946.57 75.9998 1944.59 69.2117 1942.36L69.9928 1939.98C63.2218 1937.76 56.5631 1935.27 50.0399 1932.52L49.0694 1934.83C42.4445 1932.04 35.9561 1928.98 29.6284 1925.64L30.7942 1923.43C24.5088 1920.12 18.3857 1916.53 12.4492 1912.66L11.085 1914.76C5.07972 1910.85 -0.738772 1906.65 -6.34583 1902.17L-4.78461 1900.22C-10.3017 1895.81 -15.6105 1891.11 -20.6873 1886.13L-22.4383 1887.92Z" stroke="url(#paint3_linear_307_51)" stroke-opacity="0.5" stroke-width="5" stroke-dasharray="20 20"/>
<path d="M1328.17 1028.06C1334.16 1030.93 1340.14 1033.75 1346.09 1036.41L1345.07 1038.69C1348.12 1040.05 1351.16 1041.38 1354.19 1042.65C1357.25 1043.94 1360.34 1045.19 1363.45 1046.43L1364.37 1044.11C1370.51 1046.56 1376.72 1048.92 1382.97 1051.27L1382.09 1053.61C1385.08 1054.73 1388.04 1055.84 1391 1056.94C1394.25 1058.15 1397.48 1059.36 1400.75 1060.58L1401.63 1058.24C1407.86 1060.59 1414.08 1062.96 1420.21 1065.42L1419.28 1067.74C1425.47 1070.21 1431.57 1072.77 1437.53 1075.45L1438.56 1073.18C1444.68 1075.94 1450.66 1078.84 1456.44 1081.94L1455.26 1084.15C1461.12 1087.29 1466.76 1090.64 1472.12 1094.25L1473.52 1092.18C1479.08 1095.93 1484.36 1099.95 1489.28 1104.33L1487.62 1106.2C1492.49 1110.53 1496.99 1115.2 1501.08 1120.28L1503.03 1118.72C1507.12 1123.81 1510.81 1129.31 1514.02 1135.29L1511.82 1136.47C1513.33 1139.29 1514.74 1142.21 1516.03 1145.25C1517.26 1148.15 1518.42 1151.07 1519.52 1154.02L1521.87 1153.14C1524.09 1159.1 1526.05 1165.16 1527.76 1171.3L1525.35 1171.97C1527.03 1178.03 1528.45 1184.17 1529.62 1190.36L1532.08 1189.9C1533.25 1196.15 1534.17 1202.46 1534.81 1208.79L1532.33 1209.05C1532.97 1215.31 1533.35 1221.6 1533.46 1227.89L1535.96 1227.85C1536.08 1234.22 1535.93 1240.59 1535.5 1246.93L1533.01 1246.77C1532.58 1253.06 1531.89 1259.32 1530.93 1265.52L1533.4 1265.91C1532.42 1272.21 1531.16 1278.46 1529.62 1284.62L1527.19 1284.01C1525.67 1290.12 1523.86 1296.15 1521.77 1302.07L1524.13 1302.9C1522.01 1308.91 1519.6 1314.81 1516.9 1320.57L1514.63 1319.51C1511.97 1325.19 1509.01 1330.74 1505.77 1336.12L1507.91 1337.41C1504.63 1342.85 1501.06 1348.12 1497.19 1353.2L1495.2 1351.68C1493.3 1354.17 1491.33 1356.61 1489.29 1359C1487.01 1361.68 1484.64 1364.2 1482.2 1366.57L1483.94 1368.37C1478.77 1373.39 1473.25 1377.78 1467.45 1381.61L1466.07 1379.53C1460.28 1383.35 1454.19 1386.61 1447.83 1389.4L1448.84 1391.69C1442.42 1394.51 1435.75 1396.85 1428.89 1398.79L1428.21 1396.38C1421.59 1398.25 1414.77 1399.75 1407.79 1400.96L1408.21 1403.42C1401.34 1404.61 1394.32 1405.52 1387.21 1406.22L1386.97 1403.73C1380.05 1404.4 1373.03 1404.88 1365.95 1405.23L1366.07 1407.72C1359.05 1408.07 1351.98 1408.28 1344.89 1408.43L1344.84 1405.93C1338.19 1406.07 1331.52 1406.16 1324.86 1406.25L1323.67 1406.26L1323.7 1408.76C1316.6 1408.85 1309.52 1408.95 1302.51 1409.12L1302.45 1406.62C1298.89 1406.7 1295.35 1406.8 1291.83 1406.93C1288.35 1407.06 1284.84 1407.22 1281.32 1407.41L1281.45 1409.91C1274.54 1410.27 1267.55 1410.73 1260.52 1411.21L1260.35 1408.72C1258.83 1408.82 1257.32 1408.92 1255.8 1409.03C1250.35 1409.4 1244.89 1409.77 1239.43 1410.11L1239.59 1412.61C1232.59 1413.05 1225.6 1413.43 1218.64 1413.68L1218.55 1411.18C1211.54 1411.44 1204.57 1411.56 1197.7 1411.47L1197.67 1413.97C1190.59 1413.89 1183.59 1413.58 1176.73 1412.98L1176.95 1410.49C1169.95 1409.87 1163.1 1408.93 1156.46 1407.6L1155.97 1410.05C1149.02 1408.65 1142.27 1406.82 1135.78 1404.45L1136.64 1402.1C1130.18 1399.75 1124 1396.86 1118.16 1393.33L1116.87 1395.48C1110.98 1391.93 1105.4 1387.75 1100.2 1382.84L1101.91 1381.02C1099.47 1378.72 1097.12 1376.25 1094.85 1373.61C1092.59 1370.98 1090.51 1368.28 1088.61 1365.53L1086.56 1366.95C1082.51 1361.08 1079.23 1354.96 1076.62 1348.61L1078.93 1347.66C1076.35 1341.37 1074.43 1334.84 1073.08 1328.13L1070.63 1328.62C1069.28 1321.86 1068.5 1314.94 1068.17 1307.87L1070.67 1307.76C1070.36 1301.01 1070.48 1294.13 1070.94 1287.13L1068.44 1286.97C1068.89 1280.12 1069.66 1273.18 1070.66 1266.19L1073.13 1266.54C1074.1 1259.76 1075.29 1252.92 1076.63 1246.05L1074.17 1245.58C1075.5 1238.77 1076.96 1231.94 1078.48 1225.12L1080.92 1225.66C1082.26 1219.62 1083.66 1213.59 1085.05 1207.57C1085.22 1206.81 1085.4 1206.05 1085.57 1205.29L1083.14 1204.73C1084.72 1197.88 1086.28 1191.07 1087.75 1184.33L1090.19 1184.86C1090.94 1181.43 1091.66 1178.01 1092.35 1174.61C1093.01 1171.34 1093.65 1168.04 1094.28 1164.72L1091.83 1164.26C1092.99 1158.15 1094.1 1151.95 1095.23 1145.73C1095.3 1145.32 1095.38 1144.91 1095.45 1144.5L1097.91 1144.94C1099.1 1138.37 1100.29 1131.78 1101.55 1125.21L1099.09 1124.74C1100.36 1118.14 1101.69 1111.56 1103.14 1105.06L1105.58 1105.6C1107.04 1099.04 1108.62 1092.57 1110.38 1086.23L1107.97 1085.56C1109.78 1079.02 1111.78 1072.62 1114.04 1066.42L1116.39 1067.27C1118.68 1060.95 1121.23 1054.85 1124.11 1049.03L1121.86 1047.92C1124.87 1041.83 1128.22 1036.04 1132 1030.6L1134.06 1032.03C1137.81 1026.63 1141.98 1021.6 1146.65 1017.02L1144.9 1015.24C1149.6 1010.62 1154.8 1006.43 1160.57 1002.74L1161.91 1004.84C1164.62 1003.11 1167.46 1001.49 1170.43 999.992C1173.36 998.514 1176.3 997.228 1179.25 996.12L1178.37 993.78C1184.7 991.403 1191.07 989.822 1197.49 988.923L1197.83 991.399C1204.19 990.508 1210.61 990.305 1217.07 990.677L1217.22 988.181C1223.71 988.555 1230.24 989.497 1236.79 990.893L1236.27 993.338C1242.5 994.667 1248.77 996.417 1255.07 998.491L1255.86 996.116C1262.02 998.146 1268.2 1000.48 1274.38 1003.01L1273.43 1005.33C1279.43 1007.79 1285.43 1010.45 1291.45 1013.22L1292.5 1010.95C1298.46 1013.7 1304.41 1016.56 1310.36 1019.44L1309.27 1021.69C1311.29 1022.67 1313.32 1023.65 1315.34 1024.63C1319.26 1026.53 1323.18 1028.44 1327.08 1030.31L1328.17 1028.06Z" stroke="url(#paint4_linear_307_51)" stroke-opacity="0.5" stroke-width="5" stroke-dasharray="20 20"/>
<defs>
<linearGradient id="paint0_linear_307_51" x1="370.323" y1="10.3873" x2="78.2062" y2="397.887" gradientUnits="userSpaceOnUse">
<stop stop-color="#00FF38"/>
<stop offset="1" stop-color="#00A3FF" stop-opacity="0"/>
</linearGradient>
<linearGradient id="paint1_linear_307_51" x1="434.034" y1="777.362" x2="718.257" y2="965.772" gradientUnits="userSpaceOnUse">
<stop stop-color="#DB00FF"/>
<stop offset="1" stop-color="#00A3FF" stop-opacity="0"/>
</linearGradient>
<linearGradient id="paint2_linear_307_51" x1="905.22" y1="1608" x2="905.22" y2="1782.15" gradientUnits="userSpaceOnUse">
<stop stop-color="#00A3FF"/>
<stop offset="1" stop-color="#00A3FF" stop-opacity="0"/>
</linearGradient>
<linearGradient id="paint3_linear_307_51" x1="33.2428" y1="1927.93" x2="299.539" y2="1466.69" gradientUnits="userSpaceOnUse">
<stop stop-color="#00A3FF" stop-opacity="0"/>
<stop offset="1" stop-color="#FFC700"/>
</linearGradient>
<linearGradient id="paint4_linear_307_51" x1="1139.5" y1="1064.5" x2="1512" y2="1334" gradientUnits="userSpaceOnUse">
<stop offset="0.135417" stop-color="#0500FF" stop-opacity="0"/>
<stop offset="1" stop-color="#00A3FF"/>
</linearGradient>
</defs>
</svg>
