<svg width="27" height="27" viewBox="0 0 27 27" fill="none" xmlns="http://www.w3.org/2000/svg">
<path d="M8.01168 21.9747C6.11568 21.9747 4.69168 21.4427 3.73968 20.3787C2.79568 19.3147 2.32368 17.8027 2.32368 15.8427V12.2067C2.32368 10.2467 2.79568 8.73873 3.73968 7.68273C4.68368 6.61873 6.09968 6.08673 7.98768 6.08673C8.59568 6.08673 9.14768 6.14273 9.64368 6.25473C10.1477 6.36673 10.5957 6.51073 10.9877 6.68673C11.3797 6.86273 11.7117 7.04673 11.9837 7.23873L12.1517 9.08673C11.6797 8.75073 11.1237 8.45873 10.4837 8.21073C9.85168 7.95473 9.10768 7.82673 8.25168 7.82673C6.96368 7.82673 5.99168 8.21073 5.33568 8.97873C4.67968 9.73873 4.35168 10.8227 4.35168 12.2307V15.7707C4.35168 17.1707 4.68368 18.2587 5.34768 19.0347C6.01168 19.8027 7.00368 20.1867 8.32368 20.1867C9.17168 20.1867 9.91968 20.0627 10.5677 19.8147C11.2237 19.5667 11.7917 19.2627 12.2717 18.9027L12.1037 20.7987C11.8317 20.9907 11.4957 21.1787 11.0957 21.3627C10.6957 21.5467 10.2357 21.6947 9.71568 21.8067C9.20368 21.9187 8.63568 21.9747 8.01168 21.9747ZM18.3786 21.6987L13.7106 6.36273H15.7986L19.8186 20.1867H20.1066L24.1386 6.36273H26.2146L21.5586 21.6987H18.3786Z" fill="#11C534"/>
</svg>
