<svg width="52" height="52" viewBox="0 0 52 52" fill="none" xmlns="http://www.w3.org/2000/svg">
<circle cx="25.6324" cy="25.6324" r="25.6324" fill="#6A994E" fill-opacity="0.1"/>
<g clip-path="url(#clip0_86_11)">
<path d="M21.8332 33.7298C16.8079 35.3659 16.8079 30.8081 14.8212 30.2237M28.8452 36.0671V31.9767C28.8452 30.8081 28.9621 30.3406 28.2609 29.6394C31.5332 29.2888 34.6886 28.0033 34.6886 22.6274C34.6872 21.2308 34.1423 19.8895 33.1693 18.8876C33.6256 17.6745 33.5836 16.3301 33.0524 15.1478C33.0524 15.1478 31.7669 14.7972 28.9621 16.6671C26.5865 16.0484 24.092 16.0484 21.7163 16.6671C18.9115 14.7972 17.626 15.1478 17.626 15.1478C17.0948 16.3301 17.0528 17.6745 17.5091 18.8876C16.5361 19.8895 15.9913 21.2308 15.9898 22.6274C15.9898 28.0033 19.1453 29.2888 22.4175 29.6394C21.7163 30.3406 21.7163 31.0418 21.8332 31.9767V36.0671" stroke="#386641" stroke-width="2.92941" stroke-linecap="round" stroke-linejoin="round"/>
</g>
<defs>
<clipPath id="clip0_86_11">
<rect width="37.3975" height="37.3975" fill="white" transform="translate(6.83533 6.83533)"/>
</clipPath>
</defs>
</svg>
