<svg width="52" height="52" viewBox="0 0 52 52" fill="none" xmlns="http://www.w3.org/2000/svg">
<circle cx="25.6324" cy="25.6324" r="25.6324" fill="#EFDECD" fill-opacity="0.07"/>
<g clip-path="url(#clip0_179_10)">
<path d="M21.8331 33.7298C16.8078 35.3659 16.8078 30.8081 14.821 30.2237M28.8451 36.0671V31.9767C28.8451 30.8081 28.962 30.3406 28.2608 29.6394C31.5331 29.2888 34.6885 28.0033 34.6885 22.6274C34.687 21.2308 34.1422 19.8895 33.1692 18.8876C33.6255 17.6745 33.5835 16.3301 33.0523 15.1478C33.0523 15.1478 31.7668 14.7972 28.962 16.6671C26.5863 16.0484 24.0918 16.0484 21.7162 16.6671C18.9114 14.7972 17.6259 15.1478 17.6259 15.1478C17.0947 16.3301 17.0527 17.6745 17.509 18.8876C16.536 19.8895 15.9911 21.2308 15.9897 22.6274C15.9897 28.0033 19.1451 29.2888 22.4174 29.6394C21.7162 30.3406 21.7162 31.0418 21.8331 31.9767V36.0671" stroke="#EFDECD" stroke-width="2.92941" stroke-linecap="round" stroke-linejoin="round"/>
</g>
<defs>
<clipPath id="clip0_179_10">
<rect width="37.3975" height="37.3975" fill="white" transform="translate(6.83521 6.83533)"/>
</clipPath>
</defs>
</svg>
