<svg width="38" height="38" viewBox="0 0 38 38" fill="none" xmlns="http://www.w3.org/2000/svg">
<g clip-path="url(#clip0_230_145)">
<path d="M15.3782 26.8944C10.353 28.5306 10.353 23.9727 8.36621 23.3884M22.3903 29.2318V25.1414C22.3903 23.9727 22.5071 23.5053 21.8059 22.8041C25.0782 22.4535 28.2336 21.1679 28.2336 15.792C28.2322 14.3954 27.6873 13.0542 26.7144 12.0523C27.1707 10.8392 27.1287 9.49478 26.5975 8.31252C26.5975 8.31252 25.312 7.96191 22.5071 9.83179C20.1315 9.21308 17.637 9.21308 15.2614 9.83179C12.4566 7.96191 11.171 8.31252 11.171 8.31252C10.6398 9.49478 10.5978 10.8392 11.0542 12.0523C10.0812 13.0542 9.53631 14.3954 9.53488 15.792C9.53488 21.1679 12.6903 22.4535 15.9626 22.8041C15.2614 23.5053 15.2614 24.2065 15.3782 25.1414V29.2318" stroke="#FF7A5C" stroke-width="2.92941" stroke-linecap="round" stroke-linejoin="round"/>
</g>
<defs>
<clipPath id="clip0_230_145">
<rect width="37.3975" height="37.3975" fill="white" transform="translate(0.380371)"/>
</clipPath>
</defs>
</svg>
