<svg width="52" height="52" viewBox="0 0 52 52" fill="none" xmlns="http://www.w3.org/2000/svg">
<circle cx="25.897" cy="25.6324" r="25.6324" fill="white" fill-opacity="0.08"/>
<g clip-path="url(#clip0_179_15)">
<path d="M15.1277 20.2055C15.1277 18.7886 15.6906 17.4297 16.6925 16.4278C17.6944 15.4259 19.0533 14.863 20.4702 14.863H31.1552C32.5721 14.863 33.931 15.4259 34.9329 16.4278C35.9348 17.4297 36.4977 18.7886 36.4977 20.2055V30.8905C36.4977 32.3075 35.9348 33.6664 34.9329 34.6683C33.931 35.6702 32.5721 36.233 31.1552 36.233H20.4702C19.0533 36.233 17.6944 35.6702 16.6925 34.6683C15.6906 33.6664 15.1277 32.3075 15.1277 30.8905V20.2055Z" stroke="#EFEFEF" stroke-width="2" stroke-linecap="round" stroke-linejoin="round"/>
<path d="M21.8057 25.548C21.8057 26.6107 22.2278 27.6299 22.9793 28.3813C23.7307 29.1327 24.7499 29.5549 25.8125 29.5549C26.8752 29.5549 27.8944 29.1327 28.6458 28.3813C29.3973 27.6299 29.8194 26.6107 29.8194 25.548C29.8194 24.4853 29.3973 23.4662 28.6458 22.7147C27.8944 21.9633 26.8752 21.5411 25.8125 21.5411C24.7499 21.5411 23.7307 21.9633 22.9793 22.7147C22.2278 23.4662 21.8057 24.4853 21.8057 25.548Z" stroke="#EFEFEF" stroke-width="2" stroke-linecap="round" stroke-linejoin="round"/>
<path d="M31.823 19.5377V19.5509" stroke="#EFEFEF" stroke-width="2" stroke-linecap="round" stroke-linejoin="round"/>
</g>
<defs>
<clipPath id="clip0_179_15">
<rect width="32.055" height="32.055" fill="white" transform="translate(9.78516 9.52057)"/>
</clipPath>
</defs>
</svg>
