<svg width="33" height="33" viewBox="0 0 33 33" fill="none" xmlns="http://www.w3.org/2000/svg">
<g clip-path="url(#clip0_230_150)">
<path d="M6.12036 11.3562C6.12036 9.93932 6.68323 8.58043 7.68514 7.57852C8.68706 6.5766 10.0459 6.01373 11.4629 6.01373H22.1479C23.5648 6.01373 24.9237 6.5766 25.9256 7.57852C26.9275 8.58043 27.4904 9.93932 27.4904 11.3562V22.0412C27.4904 23.4582 26.9275 24.817 25.9256 25.819C24.9237 26.8209 23.5648 27.3837 22.1479 27.3837H11.4629C10.0459 27.3837 8.68706 26.8209 7.68514 25.819C6.68323 24.817 6.12036 23.4582 6.12036 22.0412V11.3562Z" stroke="#69D2E7" stroke-width="2.92941" stroke-linecap="round" stroke-linejoin="round"/>
<path d="M12.7983 16.6987C12.7983 17.7614 13.2205 18.7806 13.9719 19.532C14.7234 20.2834 15.7425 20.7056 16.8052 20.7056C17.8679 20.7056 18.8871 20.2834 19.6385 19.532C20.3899 18.7806 20.8121 17.7614 20.8121 16.6987C20.8121 15.636 20.3899 14.6169 19.6385 13.8654C18.8871 13.114 17.8679 12.6918 16.8052 12.6918C15.7425 12.6918 14.7234 13.114 13.9719 13.8654C13.2205 14.6169 12.7983 15.636 12.7983 16.6987Z" stroke="#69D2E7" stroke-width="2.92941" stroke-linecap="round" stroke-linejoin="round"/>
<path d="M22.8157 10.6884V10.7016" stroke="#69D2E7" stroke-width="2.92941" stroke-linecap="round" stroke-linejoin="round"/>
</g>
<defs>
<clipPath id="clip0_230_150">
<rect width="32.055" height="32.055" fill="white" transform="translate(0.777832 0.671265)"/>
</clipPath>
</defs>
</svg>
