<svg width="52" height="52" viewBox="0 0 52 52" fill="none" xmlns="http://www.w3.org/2000/svg">
<circle cx="25.6912" cy="25.6324" r="25.6324" fill="#EFDECD" fill-opacity="0.07"/>
<path d="M18.4453 35.24C17.2773 35.24 16.2053 35.032 15.2293 34.616C14.2533 34.2 13.4053 33.608 12.6853 32.84C11.9653 32.056 11.4053 31.136 11.0053 30.08C10.6213 29.024 10.4293 27.864 10.4293 26.6C10.4293 25.4 10.6373 24.288 11.0533 23.264C11.4853 22.224 12.0773 21.312 12.8293 20.528C13.5813 19.744 14.4533 19.136 15.4453 18.704C16.4373 18.272 17.5093 18.056 18.6613 18.056C19.4773 18.056 20.2693 18.184 21.0373 18.44C21.8213 18.68 22.5253 19.024 23.1493 19.472C23.7893 19.904 24.3093 20.4 24.7093 20.96L22.9813 22.76C22.5173 22.296 22.0453 21.912 21.5653 21.608C21.1013 21.288 20.6213 21.048 20.1253 20.888C19.6453 20.728 19.1573 20.648 18.6613 20.648C17.8773 20.648 17.1413 20.8 16.4533 21.104C15.7813 21.392 15.1893 21.8 14.6773 22.328C14.1813 22.856 13.7893 23.488 13.5013 24.224C13.2133 24.944 13.0693 25.736 13.0693 26.6C13.0693 27.512 13.2053 28.344 13.4773 29.096C13.7653 29.832 14.1653 30.464 14.6773 30.992C15.1893 31.52 15.7973 31.928 16.5013 32.216C17.2213 32.488 18.0133 32.624 18.8773 32.624C19.4053 32.624 19.9253 32.552 20.4373 32.408C20.9493 32.264 21.4293 32.056 21.8773 31.784C22.3253 31.512 22.7333 31.192 23.1013 30.824L24.3973 32.936C24.0293 33.368 23.5253 33.76 22.8853 34.112C22.2613 34.464 21.5573 34.744 20.7733 34.952C20.0053 35.144 19.2293 35.24 18.4453 35.24ZM32.8624 35L26.1424 18.2H29.0944L33.1024 28.4C33.2944 28.896 33.4624 29.344 33.6064 29.744C33.7664 30.144 33.9024 30.512 34.0144 30.848C34.1264 31.168 34.2304 31.472 34.3264 31.76C34.4224 32.048 34.5184 32.336 34.6144 32.624L33.9904 32.648C34.1024 32.264 34.2224 31.864 34.3504 31.448C34.4784 31.032 34.6224 30.576 34.7824 30.08C34.9584 29.584 35.1664 29.024 35.4064 28.4L39.1264 18.2H42.1504L35.3824 35H32.8624Z" fill="#EFDECD"/>
</svg>
