<svg width="52" height="52" viewBox="0 0 52 52" fill="none" xmlns="http://www.w3.org/2000/svg">
<circle cx="25.6912" cy="25.6324" r="25.6324" fill="white" fill-opacity="0.08"/>
<path d="M18.2022 33.12C17.0822 33.12 16.0755 32.9133 15.1822 32.5C14.2889 32.0867 13.5755 31.48 13.0422 30.68C12.5222 29.8667 12.2622 28.8867 12.2622 27.74C12.2622 26.94 12.4022 26.0733 12.6822 25.14C13.2955 23.14 14.2222 21.7 15.4622 20.82C16.7022 19.9267 18.0289 19.48 19.4422 19.48C20.2022 19.48 20.8755 19.5933 21.4622 19.82C22.0489 20.0467 22.5889 20.3733 23.0822 20.8L23.6222 20.38C23.9822 20.1 24.2822 19.9067 24.5222 19.8C24.7755 19.6933 25.0555 19.64 25.3622 19.64C25.6955 19.64 25.9622 19.7133 26.1622 19.86C26.3622 20.0067 26.4622 20.22 26.4622 20.5C26.4622 20.6467 26.4355 20.7933 26.3822 20.94L25.2622 24.06C25.1422 24.42 24.9955 24.6733 24.8222 24.82C24.6622 24.9667 24.4155 25.04 24.0822 25.04C23.7355 25.04 23.4489 24.92 23.2222 24.68C23.0089 24.4267 22.7622 24 22.4822 23.4C22.1622 22.7733 21.9022 22.36 21.7022 22.16C21.5022 21.96 21.2089 21.86 20.8222 21.86C20.2755 21.86 19.7489 22.2 19.2422 22.88C18.7355 23.5467 18.2755 24.5533 17.8622 25.9C17.5155 27.0333 17.3422 27.98 17.3422 28.74C17.3422 29.4067 17.4689 29.9067 17.7222 30.24C17.9755 30.56 18.3155 30.72 18.7422 30.72C19.3689 30.72 19.8822 30.58 20.2822 30.3C20.6955 30.02 21.1155 29.64 21.5422 29.16C21.8089 28.8667 22.0222 28.6533 22.1822 28.52C22.3555 28.3733 22.5355 28.3 22.7222 28.3C22.9622 28.3 23.2155 28.42 23.4822 28.66C23.7489 28.9 23.8755 29.14 23.8622 29.38C23.8755 29.6733 23.6355 30.1267 23.1422 30.74C22.6622 31.3533 21.9889 31.9067 21.1222 32.4C20.2689 32.88 19.2955 33.12 18.2022 33.12ZM42.1098 21.6C42.1098 22.08 42.0032 22.4933 41.7898 22.84C41.5898 23.1867 41.3298 23.4533 41.0098 23.64C40.6898 23.8133 40.3698 23.9 40.0498 23.9C39.7298 23.9 39.4365 23.8333 39.1698 23.7C38.9165 23.5667 38.7032 23.3867 38.5298 23.16L33.7098 31.28C33.3498 31.8933 33.0165 32.3333 32.7098 32.6C32.4032 32.8667 32.0565 33 31.6698 33C31.2565 33 30.9232 32.8667 30.6698 32.6C30.4298 32.32 30.2565 31.88 30.1498 31.28L28.4698 22.04C28.4298 21.8 28.3565 21.6067 28.2498 21.46C28.1432 21.3133 28.0032 21.1533 27.8298 20.98C27.6965 20.86 27.6032 20.7667 27.5498 20.7C27.4965 20.62 27.4698 20.5267 27.4698 20.42C27.4032 19.9267 27.6965 19.68 28.3498 19.68H33.3498C33.6565 19.68 33.8898 19.7467 34.0498 19.88C34.2098 20 34.2832 20.1667 34.2698 20.38C34.2698 20.5 34.2432 20.6 34.1898 20.68C34.1498 20.76 34.0765 20.86 33.9698 20.98C33.8498 21.1133 33.7565 21.24 33.6898 21.36C33.6232 21.48 33.5898 21.6267 33.5898 21.8C33.5898 21.88 33.5965 21.9467 33.6098 22L34.3698 26.66L37.0298 21.94C37.4965 21.0867 37.9565 20.4867 38.4098 20.14C38.8632 19.78 39.4232 19.6 40.0898 19.6C40.7032 19.6 41.1898 19.78 41.5498 20.14C41.9232 20.4867 42.1098 20.9733 42.1098 21.6Z" fill="#EFEFEF"/>
</svg>
