<svg width="33" height="33" viewBox="0 0 33 33" fill="none" xmlns="http://www.w3.org/2000/svg">
<g clip-path="url(#clip0_230_163)">
<path d="M6.23047 8.68498C6.23047 7.97652 6.5119 7.29708 7.01286 6.79612C7.51382 6.29517 8.19326 6.01373 8.90172 6.01373H24.9292C25.6377 6.01373 26.3171 6.29517 26.8181 6.79612C27.319 7.29708 27.6005 7.97652 27.6005 8.68498V24.7125C27.6005 25.421 27.319 26.1004 26.8181 26.6014C26.3171 27.1023 25.6377 27.3837 24.9292 27.3837H8.90172C8.19326 27.3837 7.51382 27.1023 7.01286 26.6014C6.5119 26.1004 6.23047 25.421 6.23047 24.7125V8.68498Z" stroke="#E91E1E" stroke-width="2.92941" stroke-linecap="round" stroke-linejoin="round"/>
<path d="M11.573 15.363V22.0412" stroke="#E91E1E" stroke-width="2.92941" stroke-linecap="round" stroke-linejoin="round"/>
<path d="M11.573 11.3562V11.3694" stroke="#E91E1E" stroke-width="2.92941" stroke-linecap="round" stroke-linejoin="round"/>
<path d="M16.9153 22.0412V15.363" stroke="#E91E1E" stroke-width="2.92941" stroke-linecap="round" stroke-linejoin="round"/>
<path d="M22.2578 22.0412V18.0343C22.2578 17.3258 21.9764 16.6464 21.4754 16.1454C20.9744 15.6445 20.295 15.363 19.5865 15.363C18.8781 15.363 18.1986 15.6445 17.6977 16.1454C17.1967 16.6464 16.9153 17.3258 16.9153 18.0343" stroke="#E91E1E" stroke-width="2.92941" stroke-linecap="round" stroke-linejoin="round"/>
</g>
<defs>
<clipPath id="clip0_230_163">
<rect width="32.055" height="32.055" fill="white" transform="translate(0.887939 0.671265)"/>
</clipPath>
</defs>
</svg>
