<svg width="52" height="52" viewBox="0 0 52 52" fill="none" xmlns="http://www.w3.org/2000/svg">
<circle cx="26.1616" cy="25.6324" r="25.6324" fill="#EFDECD" fill-opacity="0.07"/>
<g clip-path="url(#clip0_179_22)">
<path d="M13.7776 37.5686L15.9814 32.4932C14.2954 30.0999 13.5407 27.1735 13.8591 24.2632C14.1775 21.353 15.547 18.659 17.7106 16.6868C19.8742 14.7146 22.6832 13.5997 25.6104 13.5515C28.5376 13.5033 31.3818 14.5249 33.6092 16.4248C35.8366 18.3246 37.2941 20.9721 37.7082 23.8702C38.1223 26.7684 37.4645 29.7181 35.8583 32.1657C34.2521 34.6133 31.8078 36.3906 28.9842 37.164C26.1606 37.9375 23.1518 37.6539 20.5225 36.3665L13.7776 37.5686Z" stroke="#EFDECD" stroke-width="2.92941" stroke-linecap="round" stroke-linejoin="round"/>
<path d="M21.7913 22.8768C21.7913 23.0539 21.8616 23.2238 21.9869 23.349C22.1121 23.4742 22.282 23.5446 22.4591 23.5446C22.6362 23.5446 22.806 23.4742 22.9313 23.349C23.0565 23.2238 23.1269 23.0539 23.1269 22.8768V21.5412C23.1269 21.364 23.0565 21.1942 22.9313 21.0689C22.806 20.9437 22.6362 20.8734 22.4591 20.8734C22.282 20.8734 22.1121 20.9437 21.9869 21.0689C21.8616 21.1942 21.7913 21.364 21.7913 21.5412V22.8768ZM21.7913 22.8768C21.7913 24.6479 22.4948 26.3465 23.7472 27.5989C24.9996 28.8513 26.6982 29.5549 28.4694 29.5549M28.4694 29.5549H29.805C29.9821 29.5549 30.152 29.4846 30.2772 29.3593C30.4025 29.2341 30.4728 29.0642 30.4728 28.8871C30.4728 28.71 30.4025 28.5401 30.2772 28.4149C30.152 28.2897 29.9821 28.2193 29.805 28.2193H28.4694C28.2923 28.2193 28.1224 28.2897 27.9972 28.4149C27.8719 28.5401 27.8016 28.71 27.8016 28.8871C27.8016 29.0642 27.8719 29.2341 27.9972 29.3593C28.1224 29.4846 28.2923 29.5549 28.4694 29.5549Z" stroke="#EFDECD" stroke-width="2.92941" stroke-linecap="round" stroke-linejoin="round"/>
</g>
<defs>
<clipPath id="clip0_179_22">
<rect width="32.055" height="32.055" fill="white" transform="translate(9.77075 9.52057)"/>
</clipPath>
</defs>
</svg>
