<svg width="33" height="33" viewBox="0 0 33 33" fill="none" xmlns="http://www.w3.org/2000/svg">
<g clip-path="url(#clip0_230_157)">
<path d="M4.83984 28.7193L7.04363 23.6439C5.35762 21.2505 4.60299 18.3242 4.92138 15.4139C5.23976 12.5037 6.60926 9.80968 8.77287 7.83747C10.9365 5.86526 13.7455 4.75043 16.6727 4.70219C19.5999 4.65396 22.444 5.67564 24.6715 7.57549C26.8989 9.47534 28.3564 12.1228 28.7705 15.0209C29.1846 17.9191 28.5268 20.8688 26.9205 23.3164C25.3143 25.764 22.87 27.5413 20.0465 28.3147C17.2229 29.0882 14.2141 28.8046 11.5848 27.5172L4.83984 28.7193Z" stroke="#0056A1" stroke-width="2.92941" stroke-linecap="round" stroke-linejoin="round"/>
<path d="M12.8535 14.0275C12.8535 14.2046 12.9239 14.3745 13.0491 14.4997C13.1744 14.6249 13.3442 14.6953 13.5213 14.6953C13.6984 14.6953 13.8683 14.6249 13.9935 14.4997C14.1188 14.3745 14.1891 14.2046 14.1891 14.0275V12.6919C14.1891 12.5147 14.1188 12.3449 13.9935 12.2196C13.8683 12.0944 13.6984 12.024 13.5213 12.024C13.3442 12.024 13.1744 12.0944 13.0491 12.2196C12.9239 12.3449 12.8535 12.5147 12.8535 12.6919V14.0275ZM12.8535 14.0275C12.8535 15.7986 13.5571 17.4972 14.8095 18.7496C16.0619 20.002 17.7605 20.7056 19.5316 20.7056M19.5316 20.7056H20.8673C21.0444 20.7056 21.2142 20.6353 21.3395 20.51C21.4647 20.3848 21.5351 20.2149 21.5351 20.0378C21.5351 19.8607 21.4647 19.6908 21.3395 19.5656C21.2142 19.4403 21.0444 19.37 20.8673 19.37H19.5316C19.3545 19.37 19.1847 19.4403 19.0594 19.5656C18.9342 19.6908 18.8638 19.8607 18.8638 20.0378C18.8638 20.2149 18.9342 20.3848 19.0594 20.51C19.1847 20.6353 19.3545 20.7056 19.5316 20.7056Z" stroke="#0056A1" stroke-width="2.92941" stroke-linecap="round" stroke-linejoin="round"/>
</g>
<defs>
<clipPath id="clip0_230_157">
<rect width="32.055" height="32.055" fill="white" transform="translate(0.833008 0.671265)"/>
</clipPath>
</defs>
</svg>
