<svg width="53" height="52" viewBox="0 0 53 52" fill="none" xmlns="http://www.w3.org/2000/svg">
<circle cx="26.4558" cy="25.6324" r="25.6324" fill="#6A994E" fill-opacity="0.1"/>
<g clip-path="url(#clip0_86_23)">
<path d="M14.0717 37.5686L16.2754 32.4932C14.5894 30.0999 13.8348 27.1735 14.1532 24.2632C14.4716 21.353 15.8411 18.659 18.0047 16.6868C20.1683 14.7146 22.9773 13.5997 25.9045 13.5515C28.8317 13.5033 31.6759 14.5249 33.9033 16.4248C36.1307 18.3246 37.5882 20.9721 38.0023 23.8702C38.4164 26.7684 37.7586 29.7181 36.1524 32.1657C34.5461 34.6133 32.1019 36.3906 29.2783 37.164C26.4547 37.9375 23.4459 37.6539 20.8166 36.3665L14.0717 37.5686Z" stroke="#386641" stroke-width="2.92941" stroke-linecap="round" stroke-linejoin="round"/>
<path d="M22.0853 22.8768C22.0853 23.0539 22.1557 23.2238 22.2809 23.349C22.4062 23.4742 22.576 23.5446 22.7531 23.5446C22.9303 23.5446 23.1001 23.4742 23.2254 23.349C23.3506 23.2238 23.421 23.0539 23.421 22.8768V21.5412C23.421 21.364 23.3506 21.1942 23.2254 21.0689C23.1001 20.9437 22.9303 20.8734 22.7531 20.8734C22.576 20.8734 22.4062 20.9437 22.2809 21.0689C22.1557 21.1942 22.0853 21.364 22.0853 21.5412V22.8768ZM22.0853 22.8768C22.0853 24.6479 22.7889 26.3465 24.0413 27.5989C25.2937 28.8513 26.9923 29.5549 28.7635 29.5549M28.7635 29.5549H30.0991C30.2762 29.5549 30.4461 29.4846 30.5713 29.3593C30.6965 29.2341 30.7669 29.0642 30.7669 28.8871C30.7669 28.71 30.6965 28.5401 30.5713 28.4149C30.4461 28.2897 30.2762 28.2193 30.0991 28.2193H28.7635C28.5863 28.2193 28.4165 28.2897 28.2912 28.4149C28.166 28.5401 28.0956 28.71 28.0956 28.8871C28.0956 29.0642 28.166 29.2341 28.2912 29.3593C28.4165 29.4846 28.5863 29.5549 28.7635 29.5549Z" stroke="#386641" stroke-width="2.92941" stroke-linecap="round" stroke-linejoin="round"/>
</g>
<defs>
<clipPath id="clip0_86_23">
<rect width="32.055" height="32.055" fill="white" transform="translate(10.0648 9.5206)"/>
</clipPath>
</defs>
</svg>
